<svg width="479" height="500" viewBox="0 0 479 500" fill="none" xmlns="http://www.w3.org/2000/svg">
<path d="M239.002 485C368.789 485 474 379.786 474 249.999C474 215.096 466.392 181.969 452.741 152.188C415.635 71.2329 333.886 15 239.002 15C144.117 15 62.3668 71.2329 25.2596 152.188C11.6093 181.969 4 215.096 4 249.999C4 379.786 109.213 485 239.002 485Z" fill="white"/>
<path d="M238.999 445C346.695 445 434 357.747 434 250.117C434 221.17 427.687 193.698 416.358 169H324.798V359.861H238.999H153.203V169H61.6408C50.3141 193.698 44 221.17 44 250.117C44 357.747 131.304 445 238.999 445Z" fill="#1E40AF"/>
<path d="M239.5 201C279.541 201 312 168.317 312 128C312 87.6832 279.541 55 239.5 55C199.459 55 167 87.6832 167 128C167 168.317 199.459 201 239.5 201Z" fill="#0EA5E9"/>
<path d="M312 346H239.501H167V169C167 169 188.136 211.49 239.501 211.49C290.862 211.49 312 169 312 169V346Z" fill="#0EA5E9"/>
</svg>
